<?xml version="1.0" encoding="utf-8"?>
<!-- Generator: Adobe Illustrator 23.0.2, SVG Export Plug-In . SVG Version: 6.00 Build 0)  -->
<!DOCTYPE svg PUBLIC "-//W3C//DTD SVG 1.1//EN" "http://www.w3.org/Graphics/SVG/1.1/DTD/svg11.dtd" [
	<!ENTITY ns_extend "http://ns.adobe.com/Extensibility/1.0/">
	<!ENTITY ns_ai "http://ns.adobe.com/AdobeIllustrator/10.0/">
	<!ENTITY ns_graphs "http://ns.adobe.com/Graphs/1.0/">
	<!ENTITY ns_vars "http://ns.adobe.com/Variables/1.0/">
	<!ENTITY ns_imrep "http://ns.adobe.com/ImageReplacement/1.0/">
	<!ENTITY ns_sfw "http://ns.adobe.com/SaveForWeb/1.0/">
	<!ENTITY ns_custom "http://ns.adobe.com/GenericCustomNamespace/1.0/">
	<!ENTITY ns_adobe_xpath "http://ns.adobe.com/XPath/1.0/">
]>
<svg version="1.1" id="Layer_1" xmlns:x="&ns_extend;" xmlns:i="&ns_ai;" xmlns:graph="&ns_graphs;"
	 xmlns="http://www.w3.org/2000/svg" xmlns:xlink="http://www.w3.org/1999/xlink" x="0px" y="0px" viewBox="0 0 278.9 59"
	 style="enable-background:new 0 0 278.9 59;" xml:space="preserve">
<style type="text/css">
	.st0{fill:#FFFFFF;}
</style>
<metadata>
	<sfw  xmlns="&ns_sfw;">
		<slices></slices>
		<sliceSourceBounds  bottomLeftOrigin="true" height="16383" width="277" x="0" y="-8334"></sliceSourceBounds>
	</sfw>
</metadata>
<g transform="translate(0 3)">
	<g transform="translate(60.253 29.333)">
		<path class="st0" d="M-45.9-3.5l-0.4-1.2c-0.5,0.1-0.9,0.3-1.4,0.5c-1.5,1-3,2-4.5,3c-0.5,0.3-1,0.6-1.6,0.8
			c-1.4,0.5-2.8,1.1-4-0.3c-1.2-1.4-2-2.8-1.3-4.7c1.1-3.2,1.8-6.6,3-9.7c0.9-1.8,2-3.5,3.3-5c0.5-0.5,1.2-0.7,1.9-0.6
			c0.6,0.4,1,1,1.1,1.7c0,0.8-0.2,1.6-0.7,2.2c-2,3.4-3.5,7-4.4,10.8c-0.1,0.6-0.1,1.5,0.3,1.7c0.6,0.2,1.2,0.2,1.8-0.2
			c1.1-0.7,2.2-1.4,3.2-2.2c0.5-0.3,0.9-0.8,1.4-1.1c3-2,5.1-5.1,5.8-8.6c0.3-1.8,1.2-3.5,2.5-4.7c1.1-0.9,2.3-1,3.1,0
			c0.7,1,0.7,2.3-0.1,3.3c-0.9,1.5-1.7,3-2.3,4.6c0,0.1,0.6,0.6,0.8,0.5c0.4-0.2,0.7-0.5,1-0.8c2.4-2,4.8-3.9,7.2-5.9
			c0.4-0.3,0.8-0.7,1.1-1c0.5-0.8,1.5-1.1,2.3-0.6c0.1,0.1,0.2,0.1,0.3,0.2c1,0.6,1.3,1.9,0.6,2.9c0,0.1-0.1,0.1-0.1,0.2
			c-2.3,3-3,6.6-4.2,10.1c-0.3,1.1-0.4,2.3-0.2,3.5c0,0.7,0.5,1.3,1.2,1.3c0.3,0,0.6-0.1,0.8-0.3c1.2-0.6,2.3-1.3,3.2-2.2
			c1.9-1.9,3.7-4.1,5.6-6.1c0.1-0.2,0.2-0.5,0.4-0.5c0.6-0.2,1.3-0.6,1.7-0.4c0.8,0.3,0.5,1.1,0.2,1.7c-0.7,1.2-1.6,2.4-2.5,3.6
			c-1.3,1.8-2.8,3.4-4.4,5c-1.3,1.1-2.8,2-4.4,2.7c-2.4,1.1-4.8-0.4-5.5-3c-0.8-2.8,0.4-5.3,0.6-7.9c0-0.7,0-1.4,0-2.1
			c-0.6,0.3-1.2,0.7-1.7,1.1c-2.7,2.2-4.3,5.3-6.2,8.1c-0.3,0.4-0.5,0.9-0.8,1.3c-0.6,0.8-1.3,1.7-2.5,1.3
			C-45.9-1.2-46.3-2.1-45.9-3.5z"/>
		<path class="st0" d="M11.3-10.4C11.1-6.5,11-2.5,10.7,1.4c-0.4,4.7-2.9,7.3-7.5,8.4C0.2,10.4-3,10.1-5.9,8.9
			C-6.3,8.7-6.8,8.3-6.7,8C-6.6,7.3-6.3,6.6-6,6c0.3,0,0.6,0.1,0.9,0.2c1.8,0.5,3.6,0.9,5.5,1.1c4.3,0.1,6.9-2.6,7.1-6.9
			c0-0.1,0-0.1,0-0.2c0-1-0.1-2-0.1-3C6.7-2.3,6-1.7,5.3-1.2C0.7,2.3-6.2,0-8.2-5.7c-1.3-3.5-1-7.3,0.8-10.5
			c2.3-4.4,7.3-6.4,11.4-4.6c1.1,0.6,2.1,1.3,3,2.1c0.2,0.2,0.4,0.4,0.7,0.5c0.2-0.3,0.4-0.6,0.5-0.9c0.1-0.2,0.1-0.4,0.1-0.6
			C8.1-21.2,9.1-21,10.1-21c1.3,0,1,0.9,1,1.7c0,3,0,6,0,9L11.3-10.4z M7.6-10.3L7.6-10.3c-0.1-0.7-0.1-1.5-0.1-2.2
			c0.1-2.9-1.8-5.4-4.6-6.1C0-19.3-3-17.7-4.3-15c-1.2,2.4-0.9,4.8-0.7,7.2c0.4,3,2.8,5.3,5.8,5.5c2.9,0.3,5.7-1.6,6.4-4.5
			C7.5-7.9,7.6-9.1,7.6-10.3L7.6-10.3z"/>
		<path class="st0" d="M86.8-15.2c0,4.7,0,9.5,0,14.2c0,1-0.1,1.7-1.4,1.6c-1.6-0.1-1.7,0-1.8-1.6c0-0.2,0-0.4,0-0.7
			c-0.1-0.4-0.3-0.7-0.4-1.1c-0.3,0.2-0.5,0.5-0.8,0.7c-3,3.7-8.3,4.2-12,1.2c-0.9-0.7-1.6-1.6-2.1-2.6c-2.6-4.4-2.4-9.9,0.5-14
			c2.5-3.9,9.1-5.8,13.3-1.7c0.3,0.2,0.5,0.4,0.9,0.5c0.1-0.3,0.2-0.7,0.2-1c0-3.2,0-6.4,0-9.6c0-0.6,0.1-1.7,0.4-1.7
			c0.9-0.2,1.9-0.2,2.8,0c0.2,0,0.4,1,0.4,1.5c0,3.9,0,7.9,0,11.8L86.8-15.2L86.8-15.2z M83.2-10.4L83.2-10.4c0-0.8,0-1.6,0-2.4
			c-0.1-3.4-2.9-6.1-6.3-6c-2.1,0.1-4,1.2-5.1,3c-2,3.2-2.1,7.1-0.4,10.4c1.2,2.7,4.2,4.1,7.1,3.4c2.8-0.7,4.7-3.2,4.8-6
			C83.2-8.8,83.2-9.6,83.2-10.4L83.2-10.4z"/>
		<path class="st0" d="M103.6-15.5c0-4.6,0-9.2,0-13.8c0-1.7,1.4-2.6,2.8-1.7c0.4,0.2,0.6,1.1,0.6,1.7c0.1,3.1,0,6.1,0.1,9.2
			c0.1,0.7,0.2,1.4,0.3,2.1c0.5-0.4,1.1-0.8,1.6-1.3c2.3-1.9,4.8-2.7,7.7-1.7c2.9,0.9,4.9,3.5,4.9,6.6c0.3,4.6,0.1,9.3,0.2,14
			c0,1.2-0.8,1-1.5,1s-1.7,0.4-1.8-0.9c-0.1-1,0-2,0-3.1c-0.1-3.2-0.2-6.4-0.3-9.6c0-0.5-0.1-1-0.3-1.5c-0.8-2.8-2.3-4-5-4
			c-2.6,0-4.9,1.8-5.6,4.4c-0.2,0.9-0.3,1.7-0.2,2.6c0,3.5,0,7,0,10.5c0,1.6-0.1,1.6-1.8,1.6c-1.2,0-1.7-0.4-1.6-1.6
			C103.6-5.9,103.6-10.7,103.6-15.5L103.6-15.5z"/>
		<path class="st0" d="M199.4-15.4c0-4.7,0-9.3,0-14c-0.1-1,0.6-1.8,1.6-1.9c0.4,0,0.8,0.1,1.2,0.3c0.4,0.4,0.6,0.9,0.6,1.5
			c0.1,2.9,0,5.8,0,8.7c0,0.6,0,1.2,0,1.7c0.1,0.3,0.1,0.7,0.3,1c0.4-0.1,0.7-0.3,1-0.6c2.2-2.3,4.7-3.4,7.8-2.6
			c3.5,0.9,5.5,3.5,5.6,7.4c0.1,4.3,0,8.6,0.1,12.9c0,1.2-0.5,1.4-1.6,1.4s-1.9,0-1.8-1.4c0.1-3.3,0-6.6,0-9.8
			c0-1.2-0.1-2.5-0.3-3.7c-0.6-2.8-3.3-4.6-6.1-4.1c-0.8,0.2-1.5,0.5-2.1,1c-1.9,1.2-2.9,3.4-2.8,5.6c0,3.6,0,7.1,0,10.7
			c0,0.6-0.2,1.5-0.6,1.6c-0.8,0.2-1.6,0.2-2.3,0c-0.3-0.1-0.4-1-0.4-1.6c0-4.2,0-8.3,0-12.5C199.4-14.2,199.4-14.8,199.4-15.4z"/>
		<path class="st0" d="M41.6-10.2c0-5.8,2.9-9.8,8.5-11.1c5.4-1.3,10.8,2,12.1,7.4c0,0.2,0.1,0.4,0.1,0.5c0.5,2.4,0.4,4.8-0.3,7.1
			c-1.5,5-6.5,8-11.6,7.2c-5.5-0.7-8.4-4.7-8.9-9.8C41.6-9.3,41.6-9.7,41.6-10.2z M45.1-10.2c0.2,1.3,0.4,2.6,0.8,3.8
			c1,2.8,2.9,4.6,5.9,4.8c2.4,0.2,4.7-1,5.8-3.2c2.1-3.4,2.1-7.6,0.1-11c-1.7-3-5.5-4.1-8.5-2.4c-0.9,0.5-1.6,1.2-2.2,2.1
			C45.7-14.3,45.1-12.3,45.1-10.2L45.1-10.2z"/>
		<path class="st0" d="M37.5-10.2c0,4.6-1.6,8.3-6,10.2c-8.2,3.6-15.1-2.5-14.9-9.3c0.1-3,0.3-5.8,2.3-8.2c2.4-3.1,6.4-4.6,10.3-3.8
			c4.3,0.7,7,3.4,8.1,7.6C37.4-12.5,37.5-11.4,37.5-10.2z M20-9.6c0.3,1.5,0.8,2.9,1.3,4.3C22.2-3,24.5-1.5,27-1.5
			c2.6,0,4.9-1.5,5.9-3.9c1.6-3.2,1.6-6.9-0.1-10.1c-1.6-3.1-5.3-4.3-8.4-2.8c-1,0.5-1.8,1.2-2.4,2.1C20.6-14.3,20.3-12.2,20-9.6
			L20-9.6z"/>
		<path class="st0" d="M138.6-9.9c-2.1,0-4.2,0-6.3,0c-1.5,0-1.8,0.4-1.5,1.9c0.3,3.7,3.5,6.4,7.2,6.2c1.8-0.1,3.6-0.3,5.4-0.6
			c0.5-0.1,1-0.5,1.1,0.3c0.1,0.7,1.1,1.6-0.2,2c-1.1,0.4-2.2,0.7-3.4,0.8c-2.3,0.5-4.7,0.4-6.9-0.3c-2.9-0.8-5.3-3.1-6.1-6.1
			c-1.3-3.9-0.8-8.2,1.4-11.7c2.9-4.4,9.4-5.6,13.4-2.4c2.9,2.3,3.5,5.6,3.4,9c0,0.3-0.8,0.7-1.3,0.7C142.8-9.9,140.7-9.9,138.6-9.9
			z M136.9-12.3L136.9-12.3l3.3,0c2.9,0,3.2-0.6,2.1-3.3c-0.5-1.2-1.4-2.2-2.6-2.8c-3.3-1.8-8,0.4-8.8,5.2c-0.1,0.9,0.4,0.9,1.1,0.9
			C133.5-12.3,135.2-12.3,136.9-12.3L136.9-12.3z"/>
		<path class="st0" d="M166.3-9.1c0.2,2.6,0.3,5.2,0.4,7.8c0,0.7,0.5,1.7-0.8,1.8c-1.5,0.2-2.1-0.1-2.3-1.4
			c-0.2-1.2-0.6-1.2-1.3-0.5c-1.6,1.5-3.7,2.4-5.9,2.4c-3.1,0-5.5-1.6-6.2-4.1c-0.9-3,0.4-6.3,3.1-7.9c2.5-1.5,5.4-1.7,8.1-2.1
			c1.7-0.2,1.9-0.5,1.5-2.2c-0.8-3.2-3.7-3.9-5.9-3.6c-1.3,0.2-2.6,0.8-4,1.1c-0.4,0.1-0.8,0-1.2-0.3c0-0.6-0.8-1.4,0.2-1.9
			c3.6-1.6,7.3-2.3,10.9-0.3c2,1.1,3.3,3.2,3.3,5.5c0.1,1.9,0,3.8,0,5.7L166.3-9.1z M163.1-7.7c0-0.7,0-1.4,0-2.2
			c-0.1-0.4-0.4-0.7-0.8-0.9c-1.9-0.6-6.7,0.9-8,2.5c-1.1,1.4-1.3,3.3-0.4,4.9c1,1.5,2.8,2.2,4.5,1.7C161.8-2.5,163.1-4.1,163.1-7.7
			L163.1-7.7z"/>
		<path class="st0" d="M185.3-10.6c0-1.9,0-3.8,0-5.7c0-1.9-0.1-2-1.9-2c-1.1,0-1.6-0.4-1.5-1.5c0-0.9,0.3-1.2,1.3-1.3
			c2.1-0.1,2.1-0.2,2.2-2.4c0-0.8-0.2-1.5,0.9-2c2-0.9,2.4-0.7,2.5,1.5c0,3.1-0.6,3,2.9,3c0.4,0,0.9,0,1.3,0
			c1.1-0.1,1.5,0.2,1.6,1.4c0,1.3-0.7,1.4-1.7,1.3s-1.9,0-2.8,0s-1.3,0.4-1.3,1.3c0,3.9-0.1,7.7,0,11.6c0.1,2.5,1.2,3.5,3.7,3.5
			c1.1,0,1.5,0.3,1.6,1.4c0.1,1.3-0.8,1.3-1.5,1.3c-5,0.5-7.3-1.7-7.2-6c0-0.3,0-0.6,0-0.9L185.3-10.6L185.3-10.6z"/>
		<path class="st0" d="M173.6-15.5c0-4.7,0-9.3,0-14c0-1.1,0.2-1.8,1.5-1.7c1.6,0.1,1.8,0.1,1.8,1.7c0,9.5,0,18.9,0,28.4
			c0,1.6-0.1,1.6-1.8,1.7c-1.3,0.1-1.6-0.4-1.6-1.6C173.7-5.9,173.6-10.7,173.6-15.5L173.6-15.5z"/>
		<path class="st0" d="M-46.8-28.7c0,1.1-0.1,2.2-0.3,3.2c-0.2,0.7-0.6,1.2-1.2,1.5c-0.7,0-1.3-0.2-1.8-0.7
			c-1.1-1.5-1.4-3.4-0.6-5.1c0.4-0.9,1.4-1.4,2.3-1.1c1,0.1,1.7,1,1.6,2C-46.8-28.8-46.8-28.7-46.8-28.7z"/>
	</g>
</g>
<g>
	<path class="st0" d="M4.3,55.3H3.1v-6.1H1v-1h5.4v1H4.3V55.3z"/>
	<path class="st0" d="M12.4,55.3h-1.2V52c0-0.4-0.1-0.7-0.3-0.9s-0.4-0.3-0.8-0.3c-0.5,0-0.8,0.1-1.1,0.4S8.8,52,8.8,52.6v2.7H7.7
		v-7.6h1.1v1.9c0,0.3,0,0.6-0.1,1h0.1C9,50.4,9.2,50.2,9.5,50s0.6-0.2,1-0.2c1.3,0,2,0.7,2,2V55.3z"/>
	<path class="st0" d="M16.7,55.4c-0.8,0-1.5-0.2-2-0.7s-0.7-1.2-0.7-2c0-0.9,0.2-1.6,0.7-2.1s1-0.8,1.8-0.8c0.7,0,1.3,0.2,1.7,0.6
		s0.6,1,0.6,1.8v0.6h-3.6c0,0.5,0.2,0.9,0.4,1.2s0.6,0.4,1.1,0.4c0.3,0,0.6,0,0.9-0.1s0.6-0.2,0.9-0.3v0.9c-0.3,0.1-0.6,0.2-0.8,0.3
		S17.1,55.4,16.7,55.4z M16.5,50.7c-0.4,0-0.7,0.1-0.9,0.3s-0.4,0.6-0.4,1h2.5c0-0.4-0.1-0.8-0.3-1S16.8,50.7,16.5,50.7z"/>
	<path class="st0" d="M29.2,55.3h-1.4l-3.5-5.7h0l0,0.3c0,0.6,0.1,1.2,0.1,1.7v3.7h-1.1v-7.1h1.4l3.5,5.7h0c0-0.1,0-0.3,0-0.8
		s0-0.8,0-1.1v-3.7h1.1V55.3z"/>
	<path class="st0" d="M36,52.6c0,0.9-0.2,1.6-0.7,2.1s-1.1,0.7-1.9,0.7c-0.5,0-1-0.1-1.3-0.3s-0.7-0.6-0.9-1s-0.3-0.9-0.3-1.5
		c0-0.9,0.2-1.6,0.7-2.1s1.1-0.7,1.9-0.7c0.8,0,1.4,0.3,1.9,0.8S36,51.8,36,52.6z M32.1,52.6c0,1.2,0.5,1.9,1.4,1.9
		c0.9,0,1.4-0.6,1.4-1.9c0-1.2-0.5-1.9-1.4-1.9c-0.5,0-0.8,0.2-1,0.5S32.1,52,32.1,52.6z"/>
	<path class="st0" d="M40.3,49.8c0.2,0,0.4,0,0.6,0L40.8,51c-0.2,0-0.3-0.1-0.5-0.1c-0.5,0-0.8,0.1-1.1,0.4s-0.4,0.7-0.4,1.2v2.8
		h-1.1v-5.4h0.9l0.2,1h0.1c0.2-0.3,0.4-0.6,0.7-0.8S40,49.8,40.3,49.8z"/>
	<path class="st0" d="M45.2,50.8h-1.3v4.5h-1.2v-4.5h-0.9v-0.5l0.9-0.4v-0.4c0-0.6,0.1-1.1,0.4-1.4s0.8-0.5,1.4-0.5
		c0.4,0,0.8,0.1,1.2,0.2l-0.3,0.9c-0.3-0.1-0.6-0.1-0.8-0.1c-0.3,0-0.5,0.1-0.6,0.2s-0.2,0.4-0.2,0.7v0.4h1.3V50.8z"/>
	<path class="st0" d="M51.2,52.6c0,0.9-0.2,1.6-0.7,2.1s-1.1,0.7-1.9,0.7c-0.5,0-1-0.1-1.3-0.3s-0.7-0.6-0.9-1s-0.3-0.9-0.3-1.5
		c0-0.9,0.2-1.6,0.7-2.1s1.1-0.7,1.9-0.7c0.8,0,1.4,0.3,1.9,0.8S51.2,51.8,51.2,52.6z M47.3,52.6c0,1.2,0.5,1.9,1.4,1.9
		c0.9,0,1.4-0.6,1.4-1.9c0-1.2-0.5-1.9-1.4-1.9c-0.5,0-0.8,0.2-1,0.5S47.3,52,47.3,52.6z"/>
	<path class="st0" d="M54,55.3h-1.1v-7.6H54V55.3z"/>
	<path class="st0" d="M57,52.5l0.6-0.8l1.6-1.7h1.3l-2.2,2.3l2.3,3.1h-1.3L57.6,53L57,53.5v1.9h-1.1v-7.6H57v3.7L57,52.5L57,52.5z"
		/>
	<path class="st0" d="M68,55.3l-0.2-0.8h0c-0.3,0.3-0.5,0.6-0.8,0.7s-0.6,0.2-1,0.2c-0.5,0-0.9-0.1-1.2-0.4s-0.4-0.7-0.4-1.2
		c0-0.6,0.2-1,0.6-1.3s1-0.4,1.9-0.5l0.9,0v-0.3c0-0.3-0.1-0.6-0.2-0.8s-0.4-0.3-0.7-0.3c-0.3,0-0.5,0-0.8,0.1s-0.5,0.2-0.7,0.3
		l-0.4-0.8c0.3-0.2,0.6-0.3,1-0.3s0.7-0.1,1-0.1c0.7,0,1.2,0.1,1.6,0.4s0.5,0.8,0.5,1.4v3.6H68z M66.3,54.5c0.4,0,0.8-0.1,1-0.3
		s0.4-0.6,0.4-1v-0.5l-0.7,0c-0.5,0-0.9,0.1-1.2,0.3s-0.4,0.4-0.4,0.7c0,0.2,0.1,0.4,0.2,0.6S66,54.5,66.3,54.5z"/>
	<path class="st0" d="M75.4,55.3h-1.2V52c0-0.4-0.1-0.7-0.3-0.9s-0.4-0.3-0.8-0.3c-0.5,0-0.8,0.1-1.1,0.4s-0.3,0.8-0.3,1.4v2.7h-1.1
		v-5.4h0.9l0.2,0.7h0.1c0.2-0.3,0.4-0.5,0.7-0.6s0.6-0.2,1-0.2c1.3,0,1.9,0.7,1.9,2V55.3z"/>
	<path class="st0" d="M79.1,55.4c-0.7,0-1.2-0.2-1.6-0.7S77,53.5,77,52.6c0-0.9,0.2-1.6,0.6-2.1s0.9-0.7,1.6-0.7
		c0.7,0,1.2,0.3,1.6,0.8h0.1c-0.1-0.4-0.1-0.7-0.1-0.9v-2h1.2v7.6H81l-0.2-0.7h-0.1C80.3,55.2,79.8,55.4,79.1,55.4z M79.4,54.5
		c0.5,0,0.8-0.1,1-0.4s0.3-0.7,0.3-1.3v-0.2c0-0.7-0.1-1.2-0.3-1.5s-0.6-0.4-1-0.4c-0.4,0-0.7,0.2-0.9,0.5s-0.3,0.8-0.3,1.4
		c0,0.6,0.1,1.1,0.3,1.4S79,54.5,79.4,54.5z"/>
	<path class="st0" d="M93.2,55.3H92l-1.2-4.3c-0.1-0.2-0.1-0.5-0.2-0.8s-0.1-0.6-0.1-0.7c0,0.2-0.1,0.5-0.2,0.8s-0.1,0.6-0.2,0.7
		l-1.2,4.2h-1.3l-0.9-3.6l-0.9-3.6H87l1,4.2c0.2,0.7,0.3,1.3,0.3,1.8c0-0.3,0.1-0.6,0.2-0.9s0.1-0.6,0.2-0.8l1.2-4.2H91l1.2,4.2
		c0.1,0.4,0.2,1,0.4,1.7c0-0.5,0.2-1.1,0.4-1.8l1-4.2h1.2L93.2,55.3z"/>
	<path class="st0" d="M99.4,55.3l-0.2-0.8h0c-0.3,0.3-0.5,0.6-0.8,0.7s-0.6,0.2-1,0.2c-0.5,0-0.9-0.1-1.2-0.4s-0.4-0.7-0.4-1.2
		c0-0.6,0.2-1,0.6-1.3s1-0.4,1.9-0.5l0.9,0v-0.3c0-0.3-0.1-0.6-0.2-0.8s-0.4-0.3-0.7-0.3c-0.3,0-0.5,0-0.8,0.1s-0.5,0.2-0.7,0.3
		l-0.4-0.8c0.3-0.2,0.6-0.3,1-0.3s0.7-0.1,1-0.1c0.7,0,1.2,0.1,1.6,0.4s0.5,0.8,0.5,1.4v3.6H99.4z M97.7,54.5c0.4,0,0.8-0.1,1-0.3
		s0.4-0.6,0.4-1v-0.5l-0.7,0c-0.5,0-0.9,0.1-1.2,0.3s-0.4,0.4-0.4,0.7c0,0.2,0.1,0.4,0.2,0.6S97.4,54.5,97.7,54.5z"/>
	<path class="st0" d="M103.3,55.3l-2.1-5.4h1.2l1.1,3.1c0.2,0.5,0.3,1,0.3,1.3h0c0-0.2,0.1-0.7,0.3-1.3l1.1-3.1h1.2l-2.1,5.4H103.3z
		"/>
	<path class="st0" d="M110,55.4c-0.8,0-1.5-0.2-2-0.7s-0.7-1.2-0.7-2c0-0.9,0.2-1.6,0.7-2.1s1-0.8,1.8-0.8c0.7,0,1.3,0.2,1.7,0.6
		s0.6,1,0.6,1.8v0.6h-3.6c0,0.5,0.2,0.9,0.4,1.2s0.6,0.4,1.1,0.4c0.3,0,0.6,0,0.9-0.1s0.6-0.2,0.9-0.3v0.9c-0.3,0.1-0.6,0.2-0.8,0.3
		S110.4,55.4,110,55.4z M109.8,50.7c-0.4,0-0.7,0.1-0.9,0.3s-0.4,0.6-0.4,1h2.5c0-0.4-0.1-0.8-0.3-1S110.1,50.7,109.8,50.7z"/>
	<path class="st0" d="M118.4,55.3h-1.2V52c0-0.4-0.1-0.7-0.3-0.9s-0.4-0.3-0.8-0.3c-0.5,0-0.8,0.1-1.1,0.4s-0.3,0.8-0.3,1.4v2.7
		h-1.1v-5.4h0.9l0.2,0.7h0.1c0.2-0.3,0.4-0.5,0.7-0.6s0.6-0.2,1-0.2c1.3,0,1.9,0.7,1.9,2V55.3z"/>
	<path class="st0" d="M122.7,55.4c-0.8,0-1.5-0.2-2-0.7s-0.7-1.2-0.7-2c0-0.9,0.2-1.6,0.7-2.1s1-0.8,1.8-0.8c0.7,0,1.3,0.2,1.7,0.6
		s0.6,1,0.6,1.8v0.6h-3.6c0,0.5,0.2,0.9,0.4,1.2s0.6,0.4,1.1,0.4c0.3,0,0.6,0,0.9-0.1s0.6-0.2,0.9-0.3v0.9c-0.3,0.1-0.6,0.2-0.8,0.3
		S123.1,55.4,122.7,55.4z M122.5,50.7c-0.4,0-0.7,0.1-0.9,0.3s-0.4,0.6-0.4,1h2.5c0-0.4-0.1-0.8-0.3-1S122.8,50.7,122.5,50.7z"/>
	<path class="st0" d="M125.5,49.9h1.2l1.1,3.1c0.2,0.4,0.3,0.8,0.3,1.2h0c0-0.2,0.1-0.4,0.2-0.7s0.5-1.5,1.2-3.6h1.2l-2.3,6.1
		c-0.4,1.1-1.1,1.7-2.1,1.7c-0.3,0-0.5,0-0.7-0.1v-0.9c0.2,0,0.4,0.1,0.6,0.1c0.6,0,0.9-0.3,1.2-1l0.2-0.5L125.5,49.9z"/>
	<path class="st0" d="M140.5,55.3h-1.2v-3.2H136v3.2h-1.2v-7.1h1.2v2.9h3.3v-2.9h1.2V55.3z"/>
	<path class="st0" d="M144.9,55.4c-0.8,0-1.5-0.2-2-0.7s-0.7-1.2-0.7-2c0-0.9,0.2-1.6,0.7-2.1s1-0.8,1.8-0.8c0.7,0,1.3,0.2,1.7,0.6
		s0.6,1,0.6,1.8v0.6h-3.6c0,0.5,0.2,0.9,0.4,1.2s0.6,0.4,1.1,0.4c0.3,0,0.6,0,0.9-0.1s0.6-0.2,0.9-0.3v0.9c-0.3,0.1-0.6,0.2-0.8,0.3
		S145.2,55.4,144.9,55.4z M144.7,50.7c-0.4,0-0.7,0.1-0.9,0.3s-0.4,0.6-0.4,1h2.5c0-0.4-0.1-0.8-0.3-1S145,50.7,144.7,50.7z"/>
	<path class="st0" d="M151.9,55.3l-0.2-0.8h0c-0.3,0.3-0.5,0.6-0.8,0.7s-0.6,0.2-1,0.2c-0.5,0-0.9-0.1-1.2-0.4s-0.4-0.7-0.4-1.2
		c0-0.6,0.2-1,0.6-1.3s1-0.4,1.9-0.5l0.9,0v-0.3c0-0.3-0.1-0.6-0.2-0.8s-0.4-0.3-0.7-0.3c-0.3,0-0.5,0-0.8,0.1s-0.5,0.2-0.7,0.3
		l-0.4-0.8c0.3-0.2,0.6-0.3,1-0.3s0.7-0.1,1-0.1c0.7,0,1.2,0.1,1.6,0.4s0.5,0.8,0.5,1.4v3.6H151.9z M150.2,54.5c0.4,0,0.8-0.1,1-0.3
		s0.4-0.6,0.4-1v-0.5l-0.7,0c-0.5,0-0.9,0.1-1.2,0.3s-0.4,0.4-0.4,0.7c0,0.2,0.1,0.4,0.2,0.6S149.9,54.5,150.2,54.5z"/>
	<path class="st0" d="M155.7,55.3h-1.1v-7.6h1.1V55.3z"/>
	<path class="st0" d="M159.7,54.5c0.3,0,0.6,0,0.8-0.1v0.9c-0.1,0.1-0.3,0.1-0.5,0.1s-0.4,0.1-0.6,0.1c-1.1,0-1.6-0.6-1.6-1.7v-2.9
		H157v-0.5l0.8-0.4l0.4-1.1h0.7v1.2h1.5v0.9h-1.5v2.9c0,0.3,0.1,0.5,0.2,0.6S159.4,54.5,159.7,54.5z"/>
	<path class="st0" d="M166.6,55.3h-1.2V52c0-0.4-0.1-0.7-0.3-0.9s-0.4-0.3-0.8-0.3c-0.5,0-0.8,0.1-1.1,0.4S163,52,163,52.6v2.7h-1.1
		v-7.6h1.1v1.9c0,0.3,0,0.6-0.1,1h0.1c0.2-0.3,0.4-0.5,0.7-0.6s0.6-0.2,1-0.2c1.3,0,2,0.7,2,2V55.3z"/>
	<path class="st0" d="M174.6,55.3l-0.2-0.8h0c-0.3,0.3-0.5,0.6-0.8,0.7s-0.6,0.2-1,0.2c-0.5,0-0.9-0.1-1.2-0.4s-0.4-0.7-0.4-1.2
		c0-0.6,0.2-1,0.6-1.3s1-0.4,1.9-0.5l0.9,0v-0.3c0-0.3-0.1-0.6-0.2-0.8s-0.4-0.3-0.7-0.3c-0.3,0-0.5,0-0.8,0.1s-0.5,0.2-0.7,0.3
		l-0.4-0.8c0.3-0.2,0.6-0.3,1-0.3s0.7-0.1,1-0.1c0.7,0,1.2,0.1,1.6,0.4s0.5,0.8,0.5,1.4v3.6H174.6z M172.9,54.5c0.4,0,0.8-0.1,1-0.3
		s0.4-0.6,0.4-1v-0.5l-0.7,0c-0.5,0-0.9,0.1-1.2,0.3s-0.4,0.4-0.4,0.7c0,0.2,0.1,0.4,0.2,0.6S172.6,54.5,172.9,54.5z"/>
	<path class="st0" d="M182,55.3h-1.2V52c0-0.4-0.1-0.7-0.3-0.9s-0.4-0.3-0.8-0.3c-0.5,0-0.8,0.1-1.1,0.4s-0.3,0.8-0.3,1.4v2.7h-1.1
		v-5.4h0.9l0.2,0.7h0.1c0.2-0.3,0.4-0.5,0.7-0.6s0.6-0.2,1-0.2c1.3,0,1.9,0.7,1.9,2V55.3z"/>
	<path class="st0" d="M185.7,55.4c-0.7,0-1.2-0.2-1.6-0.7s-0.6-1.2-0.6-2.1c0-0.9,0.2-1.6,0.6-2.1s0.9-0.7,1.6-0.7
		c0.7,0,1.2,0.3,1.6,0.8h0.1c-0.1-0.4-0.1-0.7-0.1-0.9v-2h1.2v7.6h-0.9l-0.2-0.7h-0.1C187,55.2,186.4,55.4,185.7,55.4z M186,54.5
		c0.5,0,0.8-0.1,1-0.4s0.3-0.7,0.3-1.3v-0.2c0-0.7-0.1-1.2-0.3-1.5s-0.6-0.4-1-0.4c-0.4,0-0.7,0.2-0.9,0.5s-0.3,0.8-0.3,1.4
		c0,0.6,0.1,1.1,0.3,1.4S185.6,54.5,186,54.5z"/>
	<path class="st0" d="M196.3,49.1c-0.7,0-1.2,0.2-1.6,0.7s-0.6,1.1-0.6,2c0,0.9,0.2,1.5,0.6,2s0.9,0.7,1.6,0.7c0.3,0,0.6,0,0.9-0.1
		s0.6-0.1,0.9-0.2v1c-0.6,0.2-1.2,0.3-1.9,0.3c-1,0-1.8-0.3-2.4-0.9s-0.8-1.5-0.8-2.7c0-0.7,0.1-1.4,0.4-1.9s0.7-1,1.2-1.3
		s1.1-0.4,1.8-0.4c0.7,0,1.4,0.2,2,0.5l-0.4,1c-0.2-0.1-0.5-0.2-0.8-0.3S196.6,49.1,196.3,49.1z"/>
	<path class="st0" d="M203.2,55.3l-0.2-0.8h0c-0.3,0.3-0.5,0.6-0.8,0.7s-0.6,0.2-1,0.2c-0.5,0-0.9-0.1-1.2-0.4s-0.4-0.7-0.4-1.2
		c0-0.6,0.2-1,0.6-1.3s1-0.4,1.9-0.5l0.9,0v-0.3c0-0.3-0.1-0.6-0.2-0.8s-0.4-0.3-0.7-0.3c-0.3,0-0.5,0-0.8,0.1s-0.5,0.2-0.7,0.3
		l-0.4-0.8c0.3-0.2,0.6-0.3,1-0.3s0.7-0.1,1-0.1c0.7,0,1.2,0.1,1.6,0.4s0.5,0.8,0.5,1.4v3.6H203.2z M201.5,54.5c0.4,0,0.8-0.1,1-0.3
		s0.4-0.6,0.4-1v-0.5l-0.7,0c-0.5,0-0.9,0.1-1.2,0.3s-0.4,0.4-0.4,0.7c0,0.2,0.1,0.4,0.2,0.6S201.2,54.5,201.5,54.5z"/>
	<path class="st0" d="M208.6,49.8c0.2,0,0.4,0,0.6,0l-0.1,1.1c-0.2,0-0.3-0.1-0.5-0.1c-0.5,0-0.8,0.1-1.1,0.4S207,52,207,52.5v2.8
		h-1.1v-5.4h0.9l0.2,1h0.1c0.2-0.3,0.4-0.6,0.7-0.8S208.3,49.8,208.6,49.8z"/>
	<path class="st0" d="M212.8,55.4c-0.8,0-1.5-0.2-2-0.7s-0.7-1.2-0.7-2c0-0.9,0.2-1.6,0.7-2.1s1-0.8,1.8-0.8c0.7,0,1.3,0.2,1.7,0.6
		s0.6,1,0.6,1.8v0.6h-3.6c0,0.5,0.2,0.9,0.4,1.2s0.6,0.4,1.1,0.4c0.3,0,0.6,0,0.9-0.1s0.6-0.2,0.9-0.3v0.9c-0.3,0.1-0.6,0.2-0.8,0.3
		S213.1,55.4,212.8,55.4z M212.6,50.7c-0.4,0-0.7,0.1-0.9,0.3s-0.4,0.6-0.4,1h2.5c0-0.4-0.1-0.8-0.3-1S212.9,50.7,212.6,50.7z"/>
	<path class="st0" d="M224,50.3c0,0.7-0.2,1.3-0.7,1.7s-1.2,0.6-2.1,0.6h-0.7v2.7h-1.2v-7.1h2.1c0.9,0,1.6,0.2,2,0.5
		S224,49.6,224,50.3z M220.5,51.7h0.6c0.6,0,1-0.1,1.3-0.3s0.4-0.5,0.4-1c0-0.4-0.1-0.7-0.4-0.9s-0.6-0.3-1.2-0.3h-0.8V51.7z"/>
	<path class="st0" d="M228.8,55.3l-0.2-0.8h0c-0.3,0.3-0.5,0.6-0.8,0.7s-0.6,0.2-1,0.2c-0.5,0-0.9-0.1-1.2-0.4s-0.4-0.7-0.4-1.2
		c0-0.6,0.2-1,0.6-1.3s1-0.4,1.9-0.5l0.9,0v-0.3c0-0.3-0.1-0.6-0.2-0.8s-0.4-0.3-0.7-0.3c-0.3,0-0.5,0-0.8,0.1s-0.5,0.2-0.7,0.3
		l-0.4-0.8c0.3-0.2,0.6-0.3,1-0.3s0.7-0.1,1-0.1c0.7,0,1.2,0.1,1.6,0.4s0.5,0.8,0.5,1.4v3.6H228.8z M227.1,54.5c0.4,0,0.8-0.1,1-0.3
		s0.4-0.6,0.4-1v-0.5l-0.7,0c-0.5,0-0.9,0.1-1.2,0.3s-0.4,0.4-0.4,0.7c0,0.2,0.1,0.4,0.2,0.6S226.8,54.5,227.1,54.5z"/>
	<path class="st0" d="M234.3,49.8c0.2,0,0.4,0,0.6,0l-0.1,1.1c-0.2,0-0.3-0.1-0.5-0.1c-0.5,0-0.8,0.1-1.1,0.4s-0.4,0.7-0.4,1.2v2.8
		h-1.1v-5.4h0.9l0.2,1h0.1c0.2-0.3,0.4-0.6,0.7-0.8S233.9,49.8,234.3,49.8z"/>
	<path class="st0" d="M238.4,54.5c0.3,0,0.6,0,0.8-0.1v0.9c-0.1,0.1-0.3,0.1-0.5,0.1s-0.4,0.1-0.6,0.1c-1.1,0-1.6-0.6-1.6-1.7v-2.9
		h-0.7v-0.5l0.8-0.4l0.4-1.1h0.7v1.2h1.5v0.9h-1.5v2.9c0,0.3,0.1,0.5,0.2,0.6S238.2,54.5,238.4,54.5z"/>
	<path class="st0" d="M245.3,55.3h-1.2V52c0-0.4-0.1-0.7-0.3-0.9s-0.4-0.3-0.8-0.3c-0.5,0-0.8,0.1-1.1,0.4s-0.3,0.8-0.3,1.4v2.7
		h-1.1v-5.4h0.9l0.2,0.7h0.1c0.2-0.3,0.4-0.5,0.7-0.6s0.6-0.2,1-0.2c1.3,0,1.9,0.7,1.9,2V55.3z"/>
	<path class="st0" d="M249.6,55.4c-0.8,0-1.5-0.2-2-0.7s-0.7-1.2-0.7-2c0-0.9,0.2-1.6,0.7-2.1s1-0.8,1.8-0.8c0.7,0,1.3,0.2,1.7,0.6
		s0.6,1,0.6,1.8v0.6h-3.6c0,0.5,0.2,0.9,0.4,1.2s0.6,0.4,1.1,0.4c0.3,0,0.6,0,0.9-0.1s0.6-0.2,0.9-0.3v0.9c-0.3,0.1-0.6,0.2-0.8,0.3
		S249.9,55.4,249.6,55.4z M249.4,50.7c-0.4,0-0.7,0.1-0.9,0.3s-0.4,0.6-0.4,1h2.5c0-0.4-0.1-0.8-0.3-1S249.7,50.7,249.4,50.7z"/>
	<path class="st0" d="M256,49.8c0.2,0,0.4,0,0.6,0l-0.1,1.1c-0.2,0-0.3-0.1-0.5-0.1c-0.5,0-0.8,0.1-1.1,0.4s-0.4,0.7-0.4,1.2v2.8
		h-1.1v-5.4h0.9l0.2,1h0.1c0.2-0.3,0.4-0.6,0.7-0.8S255.7,49.8,256,49.8z"/>
	<path class="st0" d="M261.6,53.8c0,0.5-0.2,0.9-0.6,1.2s-0.9,0.4-1.7,0.4c-0.7,0-1.3-0.1-1.7-0.3v-1c0.6,0.3,1.2,0.4,1.8,0.4
		c0.7,0,1.1-0.2,1.1-0.6c0-0.1,0-0.3-0.1-0.3s-0.2-0.2-0.4-0.3s-0.4-0.2-0.7-0.3c-0.6-0.2-1-0.5-1.3-0.7s-0.3-0.6-0.3-0.9
		c0-0.5,0.2-0.8,0.6-1.1s0.9-0.4,1.5-0.4c0.6,0,1.2,0.1,1.8,0.4l-0.4,0.9c-0.6-0.2-1.1-0.4-1.5-0.4c-0.6,0-0.9,0.2-0.9,0.5
		c0,0.2,0.1,0.3,0.2,0.4s0.5,0.3,1,0.5c0.4,0.2,0.8,0.3,1,0.5s0.4,0.3,0.4,0.5S261.6,53.5,261.6,53.8z"/>
	<path class="st0" d="M267.9,55.3h-1.2V52c0-0.4-0.1-0.7-0.3-0.9s-0.4-0.3-0.8-0.3c-0.5,0-0.8,0.1-1.1,0.4s-0.3,0.8-0.3,1.4v2.7
		h-1.1v-7.6h1.1v1.9c0,0.3,0,0.6-0.1,1h0.1c0.2-0.3,0.4-0.5,0.7-0.6s0.6-0.2,1-0.2c1.3,0,2,0.7,2,2V55.3z"/>
	<path class="st0" d="M269.7,48.5c0-0.2,0.1-0.4,0.2-0.5s0.3-0.2,0.5-0.2c0.2,0,0.4,0.1,0.5,0.2s0.2,0.3,0.2,0.5
		c0,0.2-0.1,0.3-0.2,0.5s-0.3,0.2-0.5,0.2c-0.2,0-0.4-0.1-0.5-0.2S269.7,48.7,269.7,48.5z M270.9,55.3h-1.1v-5.4h1.1V55.3z"/>
	<path class="st0" d="M275.5,55.4c-0.7,0-1.2-0.2-1.6-0.7h-0.1c0,0.5,0.1,0.7,0.1,0.8v2.2h-1.1v-7.8h0.9c0,0.1,0.1,0.3,0.2,0.7h0.1
		c0.4-0.5,0.9-0.8,1.6-0.8c0.7,0,1.2,0.2,1.6,0.7s0.6,1.2,0.6,2.1s-0.2,1.6-0.6,2.1S276.2,55.4,275.5,55.4z M275.2,50.8
		c-0.5,0-0.8,0.1-1,0.4s-0.3,0.7-0.3,1.3v0.2c0,0.7,0.1,1.1,0.3,1.4s0.5,0.4,1,0.4c0.4,0,0.7-0.2,0.9-0.5s0.3-0.8,0.3-1.4
		c0-0.6-0.1-1.1-0.3-1.4S275.6,50.8,275.2,50.8z"/>
</g>
</svg>
